<?xml version="1.0" encoding="UTF-8"?>
<!DOCTYPE svg PUBLIC "-//W3C//DTD SVG 1.1//EN" "http://www.w3.org/Graphics/SVG/1.1/DTD/svg11.dtd">
<svg xmlns="http://www.w3.org/2000/svg" version="1.1" width="1024px" height="1024px" style="shape-rendering:geometricPrecision; text-rendering:geometricPrecision; image-rendering:optimizeQuality; fill-rule:evenodd; clip-rule:evenodd" xmlns:xlink="http://www.w3.org/1999/xlink">
<g><path style="opacity:1" fill="#0a1932" d="M -0.5,-0.5 C 340.833,-0.5 682.167,-0.5 1023.5,-0.5C 1023.5,340.833 1023.5,682.167 1023.5,1023.5C 682.167,1023.5 340.833,1023.5 -0.5,1023.5C -0.5,682.167 -0.5,340.833 -0.5,-0.5 Z"/></g>
<g><path style="opacity:1" fill="#dc873f" d="M 598.5,296.5 C 597.681,299.305 597.181,302.305 597,305.5C 596.667,301.833 596.333,298.167 596,294.5C 595.465,296.271 594.631,296.604 593.5,295.5C 594.641,294.575 594.641,293.741 593.5,293C 595.795,292.016 595.461,291.183 592.5,290.5C 590.539,292.543 589.039,291.877 588,288.5C 587.692,289.308 587.192,289.975 586.5,290.5C 585.5,289.167 584.5,289.167 583.5,290.5C 582.808,289.975 582.308,289.308 582,288.5C 580.8,290.412 579.133,291.745 577,292.5C 576.226,290.657 574.726,288.824 572.5,287C 573.554,285.612 573.72,284.112 573,282.5C 571.848,285.44 570.848,288.44 570,291.5C 569.828,298.013 569.328,304.347 568.5,310.5C 565.25,285.832 574.583,267.666 596.5,256C 610.458,250.168 624.458,250.001 638.5,255.5C 615.022,259.311 601.688,272.978 598.5,296.5 Z"/></g>
<g><path style="opacity:1" fill="#d87e43" d="M 404.5,332.5 C 406.673,325.972 408.673,319.305 410.5,312.5C 410.333,311.833 410.167,311.167 410,310.5C 408.857,314.037 406.691,315.204 403.5,314C 405.932,315.087 405.598,315.587 402.5,315.5C 402.728,313.645 402.061,312.812 400.5,313C 401.337,314.011 401.67,315.178 401.5,316.5C 400.178,316.33 399.011,316.663 398,317.5C 397.667,316.833 397.333,316.167 397,315.5C 396.033,316.678 395.533,318.011 395.5,319.5C 392.539,318.817 392.205,317.984 394.5,317C 393.207,316.51 391.873,316.343 390.5,316.5C 390.5,315.5 390.5,314.5 390.5,313.5C 387.405,313.626 385.572,315.293 385,318.5C 384.02,316.941 383.187,315.274 382.5,313.5C 382.891,314.891 382.058,315.891 380,316.5C 380,315.167 380,313.833 380,312.5C 378.456,314.468 377.289,316.635 376.5,319C 378.158,320.624 379.825,322.291 381.5,324C 380.004,324.507 378.837,324.007 378,322.5C 375.008,325.125 373.342,328.458 373,332.5C 372.536,331.906 372.369,331.239 372.5,330.5C 378.2,304.107 392.533,283.774 415.5,269.5C 416.642,289.711 413.809,309.377 407,328.5C 406.392,330.066 405.558,331.4 404.5,332.5 Z"/></g>
<g><path style="opacity:1" fill="#d77e42" d="M 598.5,296.5 C 597.267,311.135 601.6,323.801 611.5,334.5C 609.983,334.489 608.816,333.823 608,332.5C 605.457,329.251 603.291,325.751 601.5,322C 599.43,321.621 597.93,322.455 597,324.5C 596.418,321.332 595.418,320.999 594,323.5C 591.453,322.527 589.953,320.693 589.5,318C 587.282,316.909 585.116,315.743 583,314.5C 582.07,316.356 581.57,318.356 581.5,320.5C 583.149,321.148 584.482,322.148 585.5,323.5C 584.559,323.489 583.892,323.989 583.5,325C 583.735,325.873 584.069,326.707 584.5,327.5C 582.955,329.44 580.955,330.606 578.5,331C 579.252,331.671 579.586,332.504 579.5,333.5C 573.459,327.081 569.792,319.414 568.5,310.5C 569.328,304.347 569.828,298.013 570,291.5C 570.848,288.44 571.848,285.44 573,282.5C 573.72,284.112 573.554,285.612 572.5,287C 574.726,288.824 576.226,290.657 577,292.5C 579.133,291.745 580.8,290.412 582,288.5C 582.308,289.308 582.808,289.975 583.5,290.5C 584.5,289.167 585.5,289.167 586.5,290.5C 587.192,289.975 587.692,289.308 588,288.5C 589.039,291.877 590.539,292.543 592.5,290.5C 595.461,291.183 595.795,292.016 593.5,293C 594.641,293.741 594.641,294.575 593.5,295.5C 594.631,296.604 595.465,296.271 596,294.5C 596.333,298.167 596.667,301.833 597,305.5C 597.181,302.305 597.681,299.305 598.5,296.5 Z"/></g>
<g><path style="opacity:1" fill="#d47446" d="M 404.5,332.5 C 401.708,341.423 397.374,349.423 391.5,356.5C 394.22,350.729 397.22,345.062 400.5,339.5C 399.753,339.264 398.92,338.93 398,338.5C 397.544,337.256 398.044,336.423 399.5,336C 397.316,335.558 395.316,336.058 393.5,337.5C 394.529,337.296 395.529,337.796 396.5,339C 394.699,339.317 394.366,339.984 395.5,341C 394.23,341.9 393.23,343.066 392.5,344.5C 391.749,343.624 391.249,342.624 391,341.5C 389.933,342.191 388.766,342.691 387.5,343C 391.251,343.761 391.417,344.928 388,346.5C 387.667,345.833 387.333,345.167 387,344.5C 385.667,345.833 384.333,345.833 383,344.5C 382.395,346.481 381.395,346.815 380,345.5C 378.847,348.711 378.18,352.044 378,355.5C 376.768,352.245 374.768,351.912 372,354.5C 372.373,361.286 372.873,368.119 373.5,375C 373.79,378.286 373.457,379.786 372.5,379.5C 371.157,370.059 370.49,360.559 370.5,351C 370.303,343.93 370.97,337.097 372.5,330.5C 372.369,331.239 372.536,331.906 373,332.5C 373.342,328.458 375.008,325.125 378,322.5C 378.837,324.007 380.004,324.507 381.5,324C 379.825,322.291 378.158,320.624 376.5,319C 377.289,316.635 378.456,314.468 380,312.5C 380,313.833 380,315.167 380,316.5C 382.058,315.891 382.891,314.891 382.5,313.5C 383.187,315.274 384.02,316.941 385,318.5C 385.572,315.293 387.405,313.626 390.5,313.5C 390.5,314.5 390.5,315.5 390.5,316.5C 391.873,316.343 393.207,316.51 394.5,317C 392.205,317.984 392.539,318.817 395.5,319.5C 395.533,318.011 396.033,316.678 397,315.5C 397.333,316.167 397.667,316.833 398,317.5C 399.011,316.663 400.178,316.33 401.5,316.5C 401.67,315.178 401.337,314.011 400.5,313C 402.061,312.812 402.728,313.645 402.5,315.5C 405.598,315.587 405.932,315.087 403.5,314C 406.691,315.204 408.857,314.037 410,310.5C 410.167,311.167 410.333,311.833 410.5,312.5C 408.673,319.305 406.673,325.972 404.5,332.5 Z"/></g>
<g><path style="opacity:1" fill="#d67945" d="M 611.5,334.5 C 616.106,338.145 621.106,341.311 626.5,344C 631.03,345.632 635.696,346.632 640.5,347C 619.991,355.157 600.991,352.49 583.5,339C 582.035,337.226 580.702,335.392 579.5,333.5C 579.586,332.504 579.252,331.671 578.5,331C 580.955,330.606 582.955,329.44 584.5,327.5C 584.069,326.707 583.735,325.873 583.5,325C 583.892,323.989 584.559,323.489 585.5,323.5C 584.482,322.148 583.149,321.148 581.5,320.5C 581.57,318.356 582.07,316.356 583,314.5C 585.116,315.743 587.282,316.909 589.5,318C 589.953,320.693 591.453,322.527 594,323.5C 595.418,320.999 596.418,321.332 597,324.5C 597.93,322.455 599.43,321.621 601.5,322C 603.291,325.751 605.457,329.251 608,332.5C 608.816,333.823 609.983,334.489 611.5,334.5 Z"/></g>
<g><path style="opacity:1" fill="#218793" d="M 543.5,363.5 C 541.35,361.24 539.183,358.907 537,356.5C 535.449,359.204 533.449,361.537 531,363.5C 530.667,363.167 530.333,362.833 530,362.5C 527.885,365.318 526.052,365.151 524.5,362C 526.631,361.457 528.631,360.624 530.5,359.5C 528.939,358.653 527.439,358.986 526,360.5C 525.667,359.5 525.333,358.5 525,357.5C 524.346,358.696 523.846,358.696 523.5,357.5C 524.376,356.749 525.376,356.249 526.5,356C 524.167,355.667 521.833,355.333 519.5,355C 520.554,353.612 520.72,352.112 520,350.5C 519.535,351.931 518.701,353.097 517.5,354C 518.167,355.333 518.833,356.667 519.5,358C 516.321,358.553 513.487,359.719 511,361.5C 508.878,360.78 508.378,359.613 509.5,358C 508.034,357.365 506.7,356.531 505.5,355.5C 503.998,356.083 502.665,356.916 501.5,358C 503.167,359 504.833,360 506.5,361C 504.751,362.292 502.918,363.458 501,364.5C 500.667,363.5 500.333,362.5 500,361.5C 499.667,361.833 499.333,362.167 499,362.5C 497.581,361.54 496.081,360.707 494.5,360C 494.833,359.667 495.167,359.333 495.5,359C 493.559,358.257 491.726,358.424 490,359.5C 489.383,358.551 489.549,357.718 490.5,357C 487.259,355.456 484.259,355.956 481.5,358.5C 487.398,349.052 493.564,339.719 500,330.5C 508.5,323.271 516.167,324.271 523,333.5C 530.471,343.124 537.304,353.124 543.5,363.5 Z"/></g>
<g><path style="opacity:1" fill="#d36c48" d="M 391.5,356.5 C 387.917,362.599 384.083,368.599 380,374.5C 379.667,375.833 379.333,377.167 379,378.5C 378.636,393.836 378.803,409.17 379.5,424.5C 379.66,426.199 379.494,427.866 379,429.5C 378.529,419.82 377.862,410.153 377,400.5C 375.887,401.76 375.72,402.927 376.5,404C 375.747,405.487 374.914,405.654 374,404.5C 373.667,400.5 373.333,396.5 373,392.5C 372.829,400.344 372.329,408.011 371.5,415.5C 371.172,403.322 371.505,391.322 372.5,379.5C 373.457,379.786 373.79,378.286 373.5,375C 372.873,368.119 372.373,361.286 372,354.5C 374.768,351.912 376.768,352.245 378,355.5C 378.18,352.044 378.847,348.711 380,345.5C 381.395,346.815 382.395,346.481 383,344.5C 384.333,345.833 385.667,345.833 387,344.5C 387.333,345.167 387.667,345.833 388,346.5C 391.417,344.928 391.251,343.761 387.5,343C 388.766,342.691 389.933,342.191 391,341.5C 391.249,342.624 391.749,343.624 392.5,344.5C 393.23,343.066 394.23,341.9 395.5,341C 394.366,339.984 394.699,339.317 396.5,339C 395.529,337.796 394.529,337.296 393.5,337.5C 395.316,336.058 397.316,335.558 399.5,336C 398.044,336.423 397.544,337.256 398,338.5C 398.92,338.93 399.753,339.264 400.5,339.5C 397.22,345.062 394.22,350.729 391.5,356.5 Z"/></g>
<g><path style="opacity:1" fill="#177b8a" d="M 543.5,363.5 C 556.823,382.672 571.156,401.172 586.5,419C 580.636,417.481 574.969,415.147 569.5,412C 562.505,406.834 555.172,402.167 547.5,398C 545.167,397.333 542.833,397.333 540.5,398C 536.642,402.069 531.975,403.402 526.5,402C 522.325,400.416 518.659,398.082 515.5,395C 510.045,388.539 503.712,383.206 496.5,379C 490.06,377.423 484.393,378.756 479.5,383C 470.667,391.833 461.833,400.667 453,409.5C 438.429,426.315 424.096,443.315 410,460.5C 418.848,445.178 428.515,430.178 439,415.5C 452.7,396.075 466.867,377.075 481.5,358.5C 484.259,355.956 487.259,355.456 490.5,357C 489.549,357.718 489.383,358.551 490,359.5C 491.726,358.424 493.559,358.257 495.5,359C 495.167,359.333 494.833,359.667 494.5,360C 496.081,360.707 497.581,361.54 499,362.5C 499.333,362.167 499.667,361.833 500,361.5C 500.333,362.5 500.667,363.5 501,364.5C 502.918,363.458 504.751,362.292 506.5,361C 504.833,360 503.167,359 501.5,358C 502.665,356.916 503.998,356.083 505.5,355.5C 506.7,356.531 508.034,357.365 509.5,358C 508.378,359.613 508.878,360.78 511,361.5C 513.487,359.719 516.321,358.553 519.5,358C 518.833,356.667 518.167,355.333 517.5,354C 518.701,353.097 519.535,351.931 520,350.5C 520.72,352.112 520.554,353.612 519.5,355C 521.833,355.333 524.167,355.667 526.5,356C 525.376,356.249 524.376,356.749 523.5,357.5C 523.846,358.696 524.346,358.696 525,357.5C 525.333,358.5 525.667,359.5 526,360.5C 527.439,358.986 528.939,358.653 530.5,359.5C 528.631,360.624 526.631,361.457 524.5,362C 526.052,365.151 527.885,365.318 530,362.5C 530.333,362.833 530.667,363.167 531,363.5C 533.449,361.537 535.449,359.204 537,356.5C 539.183,358.907 541.35,361.24 543.5,363.5 Z"/></g>
<g><path style="opacity:1" fill="#d06648" d="M 363.5,398.5 C 361.026,396.433 358.86,393.433 357,389.5C 355.657,390.214 354.324,389.88 353,388.5C 352.383,389.449 352.549,390.282 353.5,391C 352.258,391.311 351.258,390.811 350.5,389.5C 349.304,389.846 349.304,390.346 350.5,391C 349.056,391.781 347.723,391.614 346.5,390.5C 347.911,388.983 347.744,387.649 346,386.5C 345.654,388.218 345.154,389.885 344.5,391.5C 342.161,392.343 340.161,392.343 338.5,391.5C 339.714,393.069 341.381,393.902 343.5,394C 340.38,396.114 338.047,395.614 336.5,392.5C 335.813,394.555 334.646,396.221 333,397.5C 332.689,396.258 333.189,395.258 334.5,394.5C 332.405,393.919 330.572,393.919 329,394.5C 328.544,393.256 329.044,392.423 330.5,392C 329.809,390.933 329.309,389.766 329,388.5C 326.865,390.278 324.365,390.945 321.5,390.5C 321.5,389.167 321.5,387.833 321.5,386.5C 320.178,386.33 319.011,386.663 318,387.5C 317.583,386.244 316.75,385.577 315.5,385.5C 310.189,375.899 306.856,365.566 305.5,354.5C 332.067,359.745 351.4,374.412 363.5,398.5 Z"/></g>
<g><path style="opacity:1" fill="#cf6448" d="M 414.5,413.5 C 413.957,413.44 413.624,413.107 413.5,412.5C 414.38,410.571 415.38,408.737 416.5,407C 415.02,407.058 414.187,405.891 414,403.5C 413.077,404.759 412.243,406.092 411.5,407.5C 409.802,406.319 408.135,406.319 406.5,407.5C 406.709,408.086 407.043,408.586 407.5,409C 406.504,410.013 405.504,410.846 404.5,411.5C 403.787,410.034 402.12,408.867 399.5,408C 400.167,407.667 400.833,407.333 401.5,407C 400.333,406.5 399.5,405.667 399,404.5C 397.801,408.186 397.467,407.853 398,403.5C 399.008,403.018 400.175,402.852 401.5,403C 400.646,401.978 399.646,401.145 398.5,400.5C 396.695,402.593 394.362,403.76 391.5,404C 393.176,405.177 394.509,406.677 395.5,408.5C 395.167,408.833 394.833,409.167 394.5,409.5C 393.11,407.797 391.61,407.13 390,407.5C 389.955,410.334 389.121,412.834 387.5,415C 388.604,416.131 388.271,416.965 386.5,417.5C 385.893,417.376 385.56,417.043 385.5,416.5C 390.278,387.249 405.611,365.583 431.5,351.5C 432.076,373.862 426.409,394.529 414.5,413.5 Z"/></g>
<g><path style="opacity:1" fill="#ce5e49" d="M 315.5,385.5 C 316.75,385.577 317.583,386.244 318,387.5C 319.011,386.663 320.178,386.33 321.5,386.5C 321.5,387.833 321.5,389.167 321.5,390.5C 324.365,390.945 326.865,390.278 329,388.5C 329.309,389.766 329.809,390.933 330.5,392C 329.044,392.423 328.544,393.256 329,394.5C 330.572,393.919 332.405,393.919 334.5,394.5C 333.189,395.258 332.689,396.258 333,397.5C 334.646,396.221 335.813,394.555 336.5,392.5C 338.047,395.614 340.38,396.114 343.5,394C 341.381,393.902 339.714,393.069 338.5,391.5C 340.161,392.343 342.161,392.343 344.5,391.5C 345.154,389.885 345.654,388.218 346,386.5C 347.744,387.649 347.911,388.983 346.5,390.5C 347.723,391.614 349.056,391.781 350.5,391C 349.304,390.346 349.304,389.846 350.5,389.5C 351.258,390.811 352.258,391.311 353.5,391C 352.549,390.282 352.383,389.449 353,388.5C 354.324,389.88 355.657,390.214 357,389.5C 358.86,393.433 361.026,396.433 363.5,398.5C 366.67,404.551 369.337,410.218 371.5,415.5C 372.329,408.011 372.829,400.344 373,392.5C 373.333,396.5 373.667,400.5 374,404.5C 374.914,405.654 375.747,405.487 376.5,404C 375.72,402.927 375.887,401.76 377,400.5C 377.862,410.153 378.529,419.82 379,429.5C 379.494,427.866 379.66,426.199 379.5,424.5C 380.326,428.982 380.826,433.649 381,438.5C 382.002,430.929 383.502,423.596 385.5,416.5C 385.56,417.043 385.893,417.376 386.5,417.5C 388.271,416.965 388.604,416.131 387.5,415C 389.121,412.834 389.955,410.334 390,407.5C 391.61,407.13 393.11,407.797 394.5,409.5C 394.833,409.167 395.167,408.833 395.5,408.5C 394.509,406.677 393.176,405.177 391.5,404C 394.362,403.76 396.695,402.593 398.5,400.5C 399.646,401.145 400.646,401.978 401.5,403C 400.175,402.852 399.008,403.018 398,403.5C 397.467,407.853 397.801,408.186 399,404.5C 399.5,405.667 400.333,406.5 401.5,407C 400.833,407.333 400.167,407.667 399.5,408C 402.12,408.867 403.787,410.034 404.5,411.5C 405.504,410.846 406.504,410.013 407.5,409C 407.043,408.586 406.709,408.086 406.5,407.5C 408.135,406.319 409.802,406.319 411.5,407.5C 412.243,406.092 413.077,404.759 414,403.5C 414.187,405.891 415.02,407.058 416.5,407C 415.38,408.737 414.38,410.571 413.5,412.5C 413.624,413.107 413.957,413.44 414.5,413.5C 405.609,424.897 395.775,435.564 385,445.5C 383.013,451.144 382.18,456.978 382.5,463C 382.961,472.519 383.628,482.019 384.5,491.5C 384.649,492.552 384.483,493.552 384,494.5C 382.281,480.875 380.948,467.208 380,453.5C 379.667,454.833 379.333,456.167 379,457.5C 377.826,453.954 377.16,450.287 377,446.5C 377.343,458.999 377.176,471.332 376.5,483.5C 375.967,469.485 375.134,455.485 374,441.5C 372.554,436.105 369.721,431.605 365.5,428C 349.645,420.991 335.812,411.158 324,398.5C 320.944,394.284 318.111,389.951 315.5,385.5 Z"/></g>
<g><path style="opacity:1" fill="#c74948" d="M 588.5,483.5 C 584.431,482.31 583.431,483.31 585.5,486.5C 585.032,488.134 584.032,489.3 582.5,490C 585.118,491.974 584.952,493.807 582,495.5C 582.094,491.688 580.594,488.688 577.5,486.5C 576.416,487.665 575.583,488.998 575,490.5C 574.28,488.888 574.446,487.388 575.5,486C 574.324,484.086 573.324,484.252 572.5,486.5C 570.837,484.199 569.003,484.199 567,486.5C 566.89,483.354 565.557,482.354 563,483.5C 560.675,482.503 559.675,480.837 560,478.5C 560.741,477.359 561.575,477.359 562.5,478.5C 564.271,477.965 564.604,477.131 563.5,476C 564.738,476.077 565.738,475.911 566.5,475.5C 565.833,475.167 565.167,474.833 564.5,474.5C 562.95,475.732 561.283,476.232 559.5,476C 557.913,475.138 556.246,474.471 554.5,474C 555.5,473.667 556.5,473.333 557.5,473C 555.939,472.682 554.772,471.849 554,470.5C 553.667,471.5 553.333,472.5 553,473.5C 552.346,472.304 551.846,472.304 551.5,473.5C 552.025,474.192 552.692,474.692 553.5,475C 552.594,476.699 552.261,478.533 552.5,480.5C 549.279,481.505 545.946,482.339 542.5,483C 543.5,483.333 544.5,483.667 545.5,484C 539.231,487.038 538.231,486.038 542.5,481C 541.069,480.535 539.903,479.701 539,478.5C 538.16,481.464 537.16,481.797 536,479.5C 535.529,481.246 534.862,482.913 534,484.5C 533,483.167 532,483.167 531,484.5C 530.21,482.21 528.876,481.877 527,483.5C 526.055,483.095 525.388,482.428 525,481.5C 523.167,484.333 521.667,484.167 520.5,481C 521.204,476.725 521.704,472.225 522,467.5C 521.667,467.167 521.333,466.833 521,466.5C 519.333,469.167 517.667,469.167 516,466.5C 515.517,467.448 515.351,468.448 515.5,469.5C 518.907,469.125 519.407,470.125 517,472.5C 515.933,470.717 514.433,470.217 512.5,471C 513.731,472.183 513.731,473.349 512.5,474.5C 511.575,473.359 510.741,473.359 510,474.5C 507.266,473.638 507.099,472.805 509.5,472C 507.831,470.331 505.831,469.498 503.5,469.5C 503.649,468.448 503.483,467.448 503,466.5C 502.64,468.608 501.973,470.608 501,472.5C 499.16,471.167 498.66,471.334 499.5,473C 497.975,474.009 496.308,474.509 494.5,474.5C 496.08,478.968 494.913,479.635 491,476.5C 489.395,478.064 487.562,478.564 485.5,478C 486.624,477.751 487.624,477.251 488.5,476.5C 486.696,475.232 484.696,474.565 482.5,474.5C 482.962,479.244 481.462,480.244 478,477.5C 477.735,479.163 478.235,480.663 479.5,482C 477.666,484.024 475.999,483.858 474.5,481.5C 475.167,480.833 475.833,480.167 476.5,479.5C 475.372,478.738 474.205,478.071 473,477.5C 472.755,479.745 472.755,482.078 473,484.5C 471.916,483.335 471.083,482.002 470.5,480.5C 471.833,479.5 471.833,478.5 470.5,477.5C 471.325,476.614 472.325,476.281 473.5,476.5C 473.646,474.058 472.813,473.391 471,474.5C 470.692,473.692 470.192,473.025 469.5,472.5C 469.251,473.582 469.085,474.915 469,476.5C 464.013,475.001 461.347,477.001 461,482.5C 459.817,483.731 458.651,483.731 457.5,482.5C 458.247,482.264 459.08,481.93 460,481.5C 459.689,480.065 459.855,478.732 460.5,477.5C 459.5,476.833 458.5,476.167 457.5,475.5C 458.46,474.188 458.294,472.854 457,471.5C 454.733,474.059 452.566,476.726 450.5,479.5C 449.707,478.645 450.04,477.811 451.5,477C 450.451,476.508 449.451,476.674 448.5,477.5C 447.749,476.624 447.249,475.624 447,474.5C 444.958,474.818 442.791,474.985 440.5,475C 438.922,476.094 437.255,476.928 435.5,477.5C 455.053,460.955 474.053,443.622 492.5,425.5C 497.232,431.283 501.732,437.283 506,443.5C 513.079,452.28 521.912,458.447 532.5,462C 546.912,460.547 560.246,463.547 572.5,471C 578.02,475.03 583.353,479.197 588.5,483.5 Z"/></g>
<g><path style="opacity:1" fill="#c24347" d="M 384.5,491.5 C 385.404,492.209 385.737,493.209 385.5,494.5C 395.532,494.076 405.199,491.909 414.5,488C 421.553,484.473 428.553,480.973 435.5,477.5C 437.255,476.928 438.922,476.094 440.5,475C 442.791,474.985 444.958,474.818 447,474.5C 447.249,475.624 447.749,476.624 448.5,477.5C 449.451,476.674 450.451,476.508 451.5,477C 450.04,477.811 449.707,478.645 450.5,479.5C 452.566,476.726 454.733,474.059 457,471.5C 458.294,472.854 458.46,474.188 457.5,475.5C 458.5,476.167 459.5,476.833 460.5,477.5C 459.855,478.732 459.689,480.065 460,481.5C 459.08,481.93 458.247,482.264 457.5,482.5C 458.651,483.731 459.817,483.731 461,482.5C 461.347,477.001 464.013,475.001 469,476.5C 469.085,474.915 469.251,473.582 469.5,472.5C 470.192,473.025 470.692,473.692 471,474.5C 472.813,473.391 473.646,474.058 473.5,476.5C 472.325,476.281 471.325,476.614 470.5,477.5C 471.833,478.5 471.833,479.5 470.5,480.5C 471.083,482.002 471.916,483.335 473,484.5C 472.755,482.078 472.755,479.745 473,477.5C 474.205,478.071 475.372,478.738 476.5,479.5C 475.833,480.167 475.167,480.833 474.5,481.5C 475.999,483.858 477.666,484.024 479.5,482C 478.235,480.663 477.735,479.163 478,477.5C 481.462,480.244 482.962,479.244 482.5,474.5C 484.696,474.565 486.696,475.232 488.5,476.5C 487.624,477.251 486.624,477.751 485.5,478C 487.562,478.564 489.395,478.064 491,476.5C 494.913,479.635 496.08,478.968 494.5,474.5C 496.308,474.509 497.975,474.009 499.5,473C 498.66,471.334 499.16,471.167 501,472.5C 501.973,470.608 502.64,468.608 503,466.5C 503.483,467.448 503.649,468.448 503.5,469.5C 505.831,469.498 507.831,470.331 509.5,472C 507.099,472.805 507.266,473.638 510,474.5C 510.741,473.359 511.575,473.359 512.5,474.5C 513.731,473.349 513.731,472.183 512.5,471C 514.433,470.217 515.933,470.717 517,472.5C 519.407,470.125 518.907,469.125 515.5,469.5C 515.351,468.448 515.517,467.448 516,466.5C 517.667,469.167 519.333,469.167 521,466.5C 521.333,466.833 521.667,467.167 522,467.5C 521.704,472.225 521.204,476.725 520.5,481C 521.667,484.167 523.167,484.333 525,481.5C 525.388,482.428 526.055,483.095 527,483.5C 528.876,481.877 530.21,482.21 531,484.5C 532,483.167 533,483.167 534,484.5C 534.862,482.913 535.529,481.246 536,479.5C 537.16,481.797 538.16,481.464 539,478.5C 539.903,479.701 541.069,480.535 542.5,481C 538.231,486.038 539.231,487.038 545.5,484C 544.5,483.667 543.5,483.333 542.5,483C 545.946,482.339 549.279,481.505 552.5,480.5C 552.261,478.533 552.594,476.699 553.5,475C 552.692,474.692 552.025,474.192 551.5,473.5C 551.846,472.304 552.346,472.304 553,473.5C 553.333,472.5 553.667,471.5 554,470.5C 554.772,471.849 555.939,472.682 557.5,473C 556.5,473.333 555.5,473.667 554.5,474C 556.246,474.471 557.913,475.138 559.5,476C 561.283,476.232 562.95,475.732 564.5,474.5C 565.167,474.833 565.833,475.167 566.5,475.5C 565.738,475.911 564.738,476.077 563.5,476C 564.604,477.131 564.271,477.965 562.5,478.5C 561.575,477.359 560.741,477.359 560,478.5C 559.675,480.837 560.675,482.503 563,483.5C 565.557,482.354 566.89,483.354 567,486.5C 569.003,484.199 570.837,484.199 572.5,486.5C 573.324,484.252 574.324,484.086 575.5,486C 574.446,487.388 574.28,488.888 575,490.5C 575.583,488.998 576.416,487.665 577.5,486.5C 580.594,488.688 582.094,491.688 582,495.5C 584.952,493.807 585.118,491.974 582.5,490C 584.032,489.3 585.032,488.134 585.5,486.5C 583.431,483.31 584.431,482.31 588.5,483.5C 606.903,492.377 626.236,497.044 646.5,497.5C 645.262,497.81 645.262,498.31 646.5,499C 557.167,499.5 467.834,499.667 378.5,499.5C 379.23,493.247 378.896,490.581 377.5,491.5C 376.527,489.052 376.194,486.385 376.5,483.5C 377.176,471.332 377.343,458.999 377,446.5C 377.16,450.287 377.826,453.954 379,457.5C 379.333,456.167 379.667,454.833 380,453.5C 380.948,467.208 382.281,480.875 384,494.5C 384.483,493.552 384.649,492.552 384.5,491.5 Z"/></g>
<g><path style="opacity:1" fill="#e24a4b" d="M 646.5,497.5 C 649.287,499.205 648.954,500.372 645.5,501C 556.169,500.713 466.836,500.547 377.5,500.5C 377.5,497.5 377.5,494.5 377.5,491.5C 378.896,490.581 379.23,493.247 378.5,499.5C 467.834,499.667 557.167,499.5 646.5,499C 645.262,498.31 645.262,497.81 646.5,497.5 Z"/></g>
<g><path style="opacity:1" fill="#db714c" d="M 725.5,576.5 C 725.486,571.049 725.32,565.382 725,559.5C 724.64,557.392 723.973,555.392 723,553.5C 722.692,554.308 722.192,554.975 721.5,555.5C 719.972,554.139 718.305,552.972 716.5,552C 717.308,551.692 717.975,551.192 718.5,550.5C 715.922,550.323 715.922,549.157 718.5,547C 716.833,545.333 715.167,543.667 713.5,542C 711.142,543.283 708.476,544.117 705.5,544.5C 705.5,543.5 705.5,542.5 705.5,541.5C 702.402,541.587 702.068,541.087 704.5,540C 704,539.833 703.5,539.667 703,539.5C 701.838,540.187 700.672,540.353 699.5,540C 700.654,539.086 700.487,538.253 699,537.5C 698.56,539.076 697.727,540.41 696.5,541.5C 699.998,543.656 702.331,546.656 703.5,550.5C 699.029,544.423 693.029,540.589 685.5,539C 678.508,538.5 671.508,538.334 664.5,538.5C 664.5,556.167 664.5,573.833 664.5,591.5C 663.883,591.389 663.383,591.056 663,590.5C 662.333,573.167 662.333,555.833 663,538.5C 670.754,537.683 678.588,537.183 686.5,537C 685.294,535.982 685.627,535.482 687.5,535.5C 690.55,535.97 690.883,536.803 688.5,538C 692.458,540.558 694.124,539.392 693.5,534.5C 676.163,534.333 658.83,534.5 641.5,535C 642.496,537.316 643.496,539.65 644.5,542C 644.43,542.765 644.097,543.265 643.5,543.5C 642.246,539.824 640.579,536.324 638.5,533C 655.167,532.333 671.833,532.333 688.5,533C 703.597,533.128 715.43,539.295 724,551.5C 727.948,559.643 728.448,567.976 725.5,576.5 Z"/></g>
<g><path style="opacity:1" fill="#0b1932" d="M 430.5,538.5 C 457.107,535.881 474.607,547.214 483,572.5C 486.749,588.091 485.916,603.424 480.5,618.5C 470.168,638.671 453.501,647.338 430.5,644.5C 430.5,609.167 430.5,573.833 430.5,538.5 Z"/></g>
<g><path style="opacity:1" fill="#d96b4e" d="M 406.5,535.5 C 409.707,538.768 411.373,542.768 411.5,547.5C 411.667,578.168 411.5,608.835 411,639.5C 410.722,640.416 410.222,641.082 409.5,641.5C 409.667,608.498 409.5,575.498 409,542.5C 408.153,540.146 407.32,537.812 406.5,535.5 Z"/></g>
<g><path style="opacity:1" fill="#d36a4c" d="M 496.5,626.5 C 495.957,626.44 495.624,626.107 495.5,625.5C 504.36,612.899 507.694,598.899 505.5,583.5C 503.473,583.662 501.473,583.495 499.5,583C 500.624,582.751 501.624,582.251 502.5,581.5C 502.154,580.304 501.654,580.304 501,581.5C 500.833,580.5 500.667,579.5 500.5,578.5C 501.204,576.465 501.871,574.465 502.5,572.5C 500.289,572.033 498.289,571.033 496.5,569.5C 497.167,569.167 497.833,568.833 498.5,568.5C 498,568.167 497.5,567.833 497,567.5C 493.934,568.713 490.767,569.547 487.5,570C 486.167,571 486.167,572 487.5,573C 486.833,573.333 486.167,573.667 485.5,574C 486.93,575.907 487.596,578.074 487.5,580.5C 486.631,589.846 486.131,599.179 486,608.5C 486.333,607.5 486.667,606.5 487,605.5C 487.273,607.101 487.773,608.601 488.5,610C 486.77,611.852 485.604,611.686 485,609.5C 484,612.5 483,615.5 482,618.5C 481.31,619.738 480.81,619.738 480.5,618.5C 485.916,603.424 486.749,588.091 483,572.5C 474.607,547.214 457.107,535.881 430.5,538.5C 429.667,573.331 429.167,608.331 429,643.5C 428.667,612.5 428.333,581.5 428,550.5C 427.5,558.827 427.334,567.16 427.5,575.5C 425.516,575.617 423.85,574.95 422.5,573.5C 420.471,574.629 420.137,574.129 421.5,572C 419.697,570.738 418.364,569.071 417.5,567C 419.631,566.457 421.631,565.624 423.5,564.5C 422.371,562.725 421.371,561.058 420.5,559.5C 420.526,561.205 419.526,562.705 417.5,564C 417.833,564.333 418.167,564.667 418.5,565C 417.256,565.456 416.423,564.956 416,563.5C 414.048,565.337 413.048,567.671 413,570.5C 412.194,564.916 412.361,559.416 413.5,554C 412.883,551.723 412.216,549.556 411.5,547.5C 411.373,542.768 409.707,538.768 406.5,535.5C 405.373,534.878 404.373,534.045 403.5,533C 422.86,532.139 442.193,532.473 461.5,534C 491.467,541.466 506.8,560.633 507.5,591.5C 507.628,604.445 503.962,616.111 496.5,626.5 Z"/></g>
<g><path style="opacity:1" fill="#cd664c" d="M 192.5,532.5 C 199.863,532.169 207.197,532.503 214.5,533.5C 227.272,568.049 239.772,602.716 252,637.5C 253.871,642.081 256.371,646.248 259.5,650C 248.818,650.832 238.151,650.666 227.5,649.5C 229.706,646.72 231.039,643.554 231.5,640C 228.998,630.994 225.998,622.161 222.5,613.5C 208.167,612.167 193.833,612.167 179.5,613.5C 176.554,621.669 174.221,630.002 172.5,638.5C 172.74,642.72 174.073,646.554 176.5,650C 168.5,650.667 160.5,650.667 152.5,650C 157.174,645.654 160.674,640.487 163,634.5C 174.731,604.14 185.564,573.473 195.5,542.5C 194.896,539.024 193.896,535.691 192.5,532.5 Z"/></g>
<g><path style="opacity:1" fill="#0e1933" d="M 200.5,552.5 C 207.201,569.593 213.534,586.926 219.5,604.5C 207.167,605.833 194.833,605.833 182.5,604.5C 188.709,587.206 194.709,569.873 200.5,552.5 Z"/></g>
<g><path style="opacity:1" fill="#f87a51" d="M 374.5,541.5 C 373.513,577.79 373.18,614.124 373.5,650.5C 371.5,650.5 369.5,650.5 367.5,650.5C 368.919,649.549 370.585,649.216 372.5,649.5C 372.333,613.832 372.5,578.165 373,542.5C 373.333,541.833 373.667,541.167 374,540.5C 374.399,540.728 374.565,541.062 374.5,541.5 Z"/></g>
<g><path style="opacity:1" fill="#cd654c" d="M 550.5,533.5 C 558.235,532.173 566.068,532.173 574,533.5C 586,566.833 598,600.167 610,633.5C 612.18,639.361 615.013,644.861 618.5,650C 607.818,650.832 597.151,650.666 586.5,649.5C 588.706,646.72 590.039,643.554 590.5,640C 587.603,631.143 584.603,622.31 581.5,613.5C 567.167,612.167 552.833,612.167 538.5,613.5C 535.466,621.47 533.133,629.637 531.5,638C 531.512,642.74 533.178,646.74 536.5,650C 528.479,650.832 520.479,650.665 512.5,649.5C 515.579,645.676 518.412,641.676 521,637.5C 532.867,606.399 544.033,575.065 554.5,543.5C 554.124,539.69 552.791,536.356 550.5,533.5 Z"/></g>
<g><path style="opacity:1" fill="#0c1933" d="M 559.5,552.5 C 566.201,569.593 572.534,586.926 578.5,604.5C 566.185,605.499 553.851,605.832 541.5,605.5C 547.5,587.833 553.5,570.167 559.5,552.5 Z"/></g>
<g><path style="opacity:1" fill="#d16b4c" d="M 833.5,647.5 C 835.379,647.393 835.712,647.893 834.5,649C 843.833,649.667 853.167,649.667 862.5,649C 858.912,644.655 856.245,639.822 854.5,634.5C 852.668,633.752 851.001,632.752 849.5,631.5C 848.833,631.833 848.167,632.167 847.5,632.5C 846.304,632.154 846.304,631.654 847.5,631C 843.864,630.374 843.864,629.207 847.5,627.5C 849.434,627.901 850.934,628.901 852,630.5C 851.981,627.756 851.314,625.089 850,622.5C 847.703,622.539 845.37,622.872 843,623.5C 840.086,622.68 839.919,621.68 842.5,620.5C 843.967,620.723 845.467,621.056 847,621.5C 847.507,620.004 847.007,618.837 845.5,618C 845.957,617.586 846.291,617.086 846.5,616.5C 845.478,615.646 844.645,614.646 844,613.5C 842.594,614.668 841.428,614.335 840.5,612.5C 839.811,614.338 839.478,616.005 839.5,617.5C 838.253,615.956 836.92,614.456 835.5,613C 836.833,612.333 836.833,611.667 835.5,611C 838.008,610.885 840.008,609.885 841.5,608C 841.241,606.739 840.574,605.739 839.5,605C 840.87,603.559 841.87,601.892 842.5,600C 839.865,593.895 837.365,587.728 835,581.5C 834.257,583.441 834.424,585.274 835.5,587C 834.747,588.487 833.914,588.654 833,587.5C 832.226,589.403 832.56,591.07 834,592.5C 835.664,590.195 837.164,590.528 838.5,593.5C 836.345,594.928 834.179,595.261 832,594.5C 831.667,595.5 831.333,596.5 831,597.5C 830.781,596.062 830.281,594.729 829.5,593.5C 829.219,595.657 827.719,597.323 825,598.5C 824.667,597.833 824.333,597.167 824,596.5C 823.982,598.797 824.149,601.131 824.5,603.5C 827.156,609.791 829.823,616.125 832.5,622.5C 833.822,622.33 834.989,622.663 836,623.5C 838.096,622.285 837.929,621.451 835.5,621C 836.552,619.881 837.719,619.381 839,619.5C 839.269,622.28 838.102,624.446 835.5,626C 835.833,626.333 836.167,626.667 836.5,627C 835.484,627.519 834.818,628.353 834.5,629.5C 835.036,631.942 835.869,634.275 837,636.5C 837.333,635.833 837.667,635.167 838,634.5C 838.5,635.667 839.333,636.5 840.5,637C 839.552,637.483 838.552,637.649 837.5,637.5C 837.851,641.159 836.851,644.159 834.5,646.5C 835.511,642.888 835.678,639.221 835,635.5C 831.99,627.97 829.49,620.304 827.5,612.5C 813.151,612.167 798.818,612.501 784.5,613.5C 781.043,621.704 778.709,630.204 777.5,639C 777.455,643.2 778.788,646.866 781.5,650C 773.833,650.667 766.167,650.667 758.5,650C 761.952,646.266 764.785,642.1 767,637.5C 779.236,606.459 790.069,574.959 799.5,543C 799.596,539.456 798.596,536.289 796.5,533.5C 800.5,533.167 804.5,532.833 808.5,532.5C 812.925,532.537 817.091,533.204 821,534.5C 832.824,570.478 845.491,606.145 859,641.5C 860.709,644.418 862.542,647.252 864.5,650C 853.5,650.667 842.5,650.667 831.5,650C 832.381,649.292 833.047,648.458 833.5,647.5 Z"/></g>
<g><path style="opacity:1" fill="#0c1932" d="M 824.5,603.5 C 818.705,604.83 812.538,605.496 806,605.5C 799.833,605.167 793.667,604.833 787.5,604.5C 793.306,587.082 799.306,569.749 805.5,552.5C 811.653,569.632 817.986,586.632 824.5,603.5 Z"/></g>
<g><path style="opacity:1" fill="#f97c53" d="M 641.5,647.5 C 642.428,644.546 643.261,641.546 644,638.5C 644.5,607.502 644.667,576.502 644.5,545.5C 645.662,576.428 645.829,608.095 645,640.5C 644.861,643.445 643.694,645.779 641.5,647.5 Z"/></g>
<g><path style="opacity:1" fill="#ce674c" d="M 374.5,541.5 C 374.565,541.062 374.399,540.728 374,540.5C 373.667,541.167 373.333,541.833 373,542.5C 372.5,578.165 372.333,613.832 372.5,649.5C 370.585,649.216 368.919,649.549 367.5,650.5C 342.48,618.97 317.98,586.97 294,554.5C 293.601,554.728 293.435,555.062 293.5,555.5C 292.778,555.082 292.278,554.416 292,553.5C 291.667,581.833 291.333,610.167 291,638.5C 289.615,637.449 288.615,636.116 288,634.5C 287.667,636.167 287.333,637.833 287,639.5C 286.667,608.167 286.333,576.833 286,545.5C 285.667,544.833 285.333,544.167 285,543.5C 284.601,543.728 284.435,544.062 284.5,544.5C 282.509,539.994 279.509,536.161 275.5,533C 284.186,532.168 292.853,532.335 301.5,533.5C 322.667,561.167 343.833,588.833 365,616.5C 365.667,592.5 365.667,568.5 365,544.5C 363.324,539.822 360.491,535.989 356.5,533C 364.5,532.333 372.5,532.333 380.5,533C 378.109,535.637 376.109,538.47 374.5,541.5 Z"/></g>
<g><path style="opacity:1" fill="#cc644b" d="M 664.5,591.5 C 697.562,597.079 710.562,583.412 703.5,550.5C 702.331,546.656 699.998,543.656 696.5,541.5C 697.727,540.41 698.56,539.076 699,537.5C 700.487,538.253 700.654,539.086 699.5,540C 700.672,540.353 701.838,540.187 703,539.5C 703.5,539.667 704,539.833 704.5,540C 702.068,541.087 702.402,541.587 705.5,541.5C 705.5,542.5 705.5,543.5 705.5,544.5C 708.476,544.117 711.142,543.283 713.5,542C 715.167,543.667 716.833,545.333 718.5,547C 715.922,549.157 715.922,550.323 718.5,550.5C 717.975,551.192 717.308,551.692 716.5,552C 718.305,552.972 719.972,554.139 721.5,555.5C 722.192,554.975 722.692,554.308 723,553.5C 723.973,555.392 724.64,557.392 725,559.5C 725.32,565.382 725.486,571.049 725.5,576.5C 723.566,581.948 720.233,586.448 715.5,590C 710.67,592.72 705.67,595.053 700.5,597C 709.209,610.253 718.043,623.42 727,636.5C 731.787,642.963 737.954,647.463 745.5,650C 728.954,655.905 715.12,652.072 704,638.5C 695.916,626.001 688.083,613.334 680.5,600.5C 675.208,599.505 669.875,599.172 664.5,599.5C 664.333,612.504 664.5,625.504 665,638.5C 665.898,642.795 667.731,646.628 670.5,650C 659.833,650.667 649.167,650.667 638.5,650C 639.373,648.955 640.373,648.122 641.5,647.5C 643.694,645.779 644.861,643.445 645,640.5C 645.829,608.095 645.662,576.428 644.5,545.5C 643.662,545.158 643.328,544.492 643.5,543.5C 644.097,543.265 644.43,542.765 644.5,542C 643.496,539.65 642.496,537.316 641.5,535C 658.83,534.5 676.163,534.333 693.5,534.5C 694.124,539.392 692.458,540.558 688.5,538C 690.883,536.803 690.55,535.97 687.5,535.5C 685.627,535.482 685.294,535.982 686.5,537C 678.588,537.183 670.754,537.683 663,538.5C 662.333,555.833 662.333,573.167 663,590.5C 663.383,591.056 663.883,591.389 664.5,591.5 Z"/></g>
<g><path style="opacity:1" fill="#0a1832" d="M 703.5,550.5 C 710.562,583.412 697.562,597.079 664.5,591.5C 664.5,573.833 664.5,556.167 664.5,538.5C 671.508,538.334 678.508,538.5 685.5,539C 693.029,540.589 699.029,544.423 703.5,550.5 Z"/></g>
<g><path style="opacity:1" fill="#c9614c" d="M 430.5,538.5 C 430.5,573.833 430.5,609.167 430.5,644.5C 453.501,647.338 470.168,638.671 480.5,618.5C 480.81,619.738 481.31,619.738 482,618.5C 483,615.5 484,612.5 485,609.5C 485.604,611.686 486.77,611.852 488.5,610C 487.773,608.601 487.273,607.101 487,605.5C 486.667,606.5 486.333,607.5 486,608.5C 486.131,599.179 486.631,589.846 487.5,580.5C 487.596,578.074 486.93,575.907 485.5,574C 486.167,573.667 486.833,573.333 487.5,573C 486.167,572 486.167,571 487.5,570C 490.767,569.547 493.934,568.713 497,567.5C 497.5,567.833 498,568.167 498.5,568.5C 497.833,568.833 497.167,569.167 496.5,569.5C 498.289,571.033 500.289,572.033 502.5,572.5C 501.871,574.465 501.204,576.465 500.5,578.5C 500.667,579.5 500.833,580.5 501,581.5C 501.654,580.304 502.154,580.304 502.5,581.5C 501.624,582.251 500.624,582.751 499.5,583C 501.473,583.495 503.473,583.662 505.5,583.5C 507.694,598.899 504.36,612.899 495.5,625.5C 495.624,626.107 495.957,626.44 496.5,626.5C 485.651,639.762 471.651,647.596 454.5,650C 437.833,650.667 421.167,650.667 404.5,650C 406.585,647.318 408.252,644.484 409.5,641.5C 410.222,641.082 410.722,640.416 411,639.5C 411.5,608.835 411.667,578.168 411.5,547.5C 412.216,549.556 412.883,551.723 413.5,554C 412.361,559.416 412.194,564.916 413,570.5C 413.048,567.671 414.048,565.337 416,563.5C 416.423,564.956 417.256,565.456 418.5,565C 418.167,564.667 417.833,564.333 417.5,564C 419.526,562.705 420.526,561.205 420.5,559.5C 421.371,561.058 422.371,562.725 423.5,564.5C 421.631,565.624 419.631,566.457 417.5,567C 418.364,569.071 419.697,570.738 421.5,572C 420.137,574.129 420.471,574.629 422.5,573.5C 423.85,574.95 425.516,575.617 427.5,575.5C 427.334,567.16 427.5,558.827 428,550.5C 428.333,581.5 428.667,612.5 429,643.5C 429.167,608.331 429.667,573.331 430.5,538.5 Z"/></g>
<g><path style="opacity:1" fill="#ca644b" d="M 833.5,647.5 C 833.5,646.833 833.833,646.5 834.5,646.5C 836.851,644.159 837.851,641.159 837.5,637.5C 838.552,637.649 839.552,637.483 840.5,637C 839.333,636.5 838.5,635.667 838,634.5C 837.667,635.167 837.333,635.833 837,636.5C 835.869,634.275 835.036,631.942 834.5,629.5C 834.818,628.353 835.484,627.519 836.5,627C 836.167,626.667 835.833,626.333 835.5,626C 838.102,624.446 839.269,622.28 839,619.5C 837.719,619.381 836.552,619.881 835.5,621C 837.929,621.451 838.096,622.285 836,623.5C 834.989,622.663 833.822,622.33 832.5,622.5C 829.823,616.125 827.156,609.791 824.5,603.5C 824.149,601.131 823.982,598.797 824,596.5C 824.333,597.167 824.667,597.833 825,598.5C 827.719,597.323 829.219,595.657 829.5,593.5C 830.281,594.729 830.781,596.062 831,597.5C 831.333,596.5 831.667,595.5 832,594.5C 834.179,595.261 836.345,594.928 838.5,593.5C 837.164,590.528 835.664,590.195 834,592.5C 832.56,591.07 832.226,589.403 833,587.5C 833.914,588.654 834.747,588.487 835.5,587C 834.424,585.274 834.257,583.441 835,581.5C 837.365,587.728 839.865,593.895 842.5,600C 841.87,601.892 840.87,603.559 839.5,605C 840.574,605.739 841.241,606.739 841.5,608C 840.008,609.885 838.008,610.885 835.5,611C 836.833,611.667 836.833,612.333 835.5,613C 836.92,614.456 838.253,615.956 839.5,617.5C 839.478,616.005 839.811,614.338 840.5,612.5C 841.428,614.335 842.594,614.668 844,613.5C 844.645,614.646 845.478,615.646 846.5,616.5C 846.291,617.086 845.957,617.586 845.5,618C 847.007,618.837 847.507,620.004 847,621.5C 845.467,621.056 843.967,620.723 842.5,620.5C 839.919,621.68 840.086,622.68 843,623.5C 845.37,622.872 847.703,622.539 850,622.5C 851.314,625.089 851.981,627.756 852,630.5C 850.934,628.901 849.434,627.901 847.5,627.5C 843.864,629.207 843.864,630.374 847.5,631C 846.304,631.654 846.304,632.154 847.5,632.5C 848.167,632.167 848.833,631.833 849.5,631.5C 851.001,632.752 852.668,633.752 854.5,634.5C 856.245,639.822 858.912,644.655 862.5,649C 853.167,649.667 843.833,649.667 834.5,649C 835.712,647.893 835.379,647.393 833.5,647.5 Z"/></g>
<g><path style="opacity:1" fill="#ce664c" d="M 293.5,555.5 C 293.333,583.169 293.5,610.835 294,638.5C 295.537,642.537 297.704,646.204 300.5,649.5C 293.189,650.665 285.856,650.831 278.5,650C 281.467,647.9 283.3,645.066 284,641.5C 284.5,609.168 284.667,576.835 284.5,544.5C 284.435,544.062 284.601,543.728 285,543.5C 285.333,544.167 285.667,544.833 286,545.5C 286.333,576.833 286.667,608.167 287,639.5C 287.333,637.833 287.667,636.167 288,634.5C 288.615,636.116 289.615,637.449 291,638.5C 291.333,610.167 291.667,581.833 292,553.5C 292.278,554.416 292.778,555.082 293.5,555.5 Z"/></g>
<g><path style="opacity:1" fill="#d97a49" d="M 255.5,697.5 C 269.454,695.629 276.288,701.629 276,715.5C 274.39,722.277 270.223,726.611 263.5,728.5C 266.674,731.171 270.174,731.838 274,730.5C 275.726,731.648 275.559,732.815 273.5,734C 266.688,735.927 261.354,733.927 257.5,728C 245.724,723.358 242.558,715.191 248,703.5C 250.114,700.879 252.614,698.879 255.5,697.5 Z"/></g>
<g><path style="opacity:1" fill="#503c3f" d="M 497.5,700.5 C 494.167,700.5 490.833,700.5 487.5,700.5C 487.81,703.713 487.477,706.713 486.5,709.5C 486.5,706.167 486.5,702.833 486.5,699.5C 490.371,699.185 494.038,699.518 497.5,700.5 Z"/></g>
<g><path style="opacity:1" fill="#0d1933" d="M 257.5,699.5 C 264.244,698.282 268.411,700.949 270,707.5C 272.519,716.45 269.685,722.783 261.5,726.5C 251.75,723.122 248.583,716.455 252,706.5C 253.371,703.734 255.204,701.401 257.5,699.5 Z"/></g>
<g><path style="opacity:1" fill="#de7d48" d="M 497.5,700.5 C 494.038,699.518 490.371,699.185 486.5,699.5C 486.5,702.833 486.5,706.167 486.5,709.5C 489.796,711.027 492.962,710.693 496,708.5C 496.667,710.833 496.667,713.167 496,715.5C 493.174,713.66 490.007,712.994 486.5,713.5C 486.033,718.4 486.699,723.067 488.5,727.5C 485.615,727.806 482.948,727.473 480.5,726.5C 481.831,717.196 481.831,707.863 480.5,698.5C 487.134,697.503 493.8,697.17 500.5,697.5C 500.66,699.199 500.494,700.866 500,702.5C 499.292,701.619 498.458,700.953 497.5,700.5 Z"/></g>
<g><path style="opacity:1" fill="#da7c47" d="M 540.5,727.5 C 537.615,727.806 534.948,727.473 532.5,726.5C 533.471,717.584 533.804,708.584 533.5,699.5C 528.867,698.458 525.701,700.125 524,704.5C 523.982,702.203 524.149,699.869 524.5,697.5C 532.196,697.169 539.862,697.503 547.5,698.5C 548.52,700.432 548.687,702.432 548,704.5C 546.348,700.123 543.181,698.456 538.5,699.5C 538.334,707.84 538.5,716.173 539,724.5C 539.513,725.527 540.013,726.527 540.5,727.5 Z"/></g>
<g><path style="opacity:1" fill="#da7b48" d="M 587.5,727.5 C 584.615,727.806 581.948,727.473 579.5,726.5C 580.436,722.265 580.769,717.931 580.5,713.5C 575.5,713.5 570.5,713.5 565.5,713.5C 565.032,718.37 565.698,723.036 567.5,727.5C 564.5,728.833 561.5,728.833 558.5,727.5C 559,726.5 559.5,725.5 560,724.5C 560.667,716.167 560.667,707.833 560,699.5C 559.5,699 559,698.5 558.5,698C 561.5,697.333 564.5,697.333 567.5,698C 565.688,701.922 565.021,706.089 565.5,710.5C 570.5,710.5 575.5,710.5 580.5,710.5C 580.979,706.089 580.312,701.922 578.5,698C 581.5,697.333 584.5,697.333 587.5,698C 587,698.5 586.5,699 586,699.5C 585.333,707.833 585.333,716.167 586,724.5C 586.513,725.527 587.013,726.527 587.5,727.5 Z"/></g>
<g><path style="opacity:1" fill="#dd7e49" d="M 605.5,725.5 C 608.977,726.323 612.644,726.823 616.5,727C 610.509,727.499 604.509,727.666 598.5,727.5C 598.987,726.527 599.487,725.527 600,724.5C 600.667,716.167 600.667,707.833 600,699.5C 599.5,699 599,698.5 598.5,698C 605.158,697.5 611.825,697.334 618.5,697.5C 618.662,699.527 618.495,701.527 618,703.5C 617.535,702.069 616.701,700.903 615.5,700C 612.183,699.502 608.85,699.335 605.5,699.5C 605.5,703.167 605.5,706.833 605.5,710.5C 609.007,711.006 612.174,710.34 615,708.5C 615.667,710.833 615.667,713.167 615,715.5C 612.174,713.66 609.007,712.994 605.5,713.5C 605.5,717.5 605.5,721.5 605.5,725.5 Z"/></g>
<g><path style="opacity:1" fill="#42333b" d="M 340.5,700.5 C 337.5,700.5 334.5,700.5 331.5,700.5C 331.5,703.833 331.5,707.167 331.5,710.5C 330.518,707.038 330.185,703.371 330.5,699.5C 334.042,699.187 337.375,699.521 340.5,700.5 Z"/></g>
<g><path style="opacity:1" fill="#d47948" d="M 355.5,698.5 C 361.979,697.509 368.646,697.176 375.5,697.5C 376.188,702.242 375.188,703.075 372.5,700C 369.183,699.502 365.85,699.335 362.5,699.5C 362.5,703.167 362.5,706.833 362.5,710.5C 366.007,711.006 369.174,710.34 372,708.5C 372.667,710.833 372.667,713.167 372,715.5C 369.174,713.66 366.007,712.994 362.5,713.5C 362.5,717.5 362.5,721.5 362.5,725.5C 366.514,725.666 370.514,725.499 374.5,725C 375.701,724.097 376.535,722.931 377,721.5C 377.334,723.847 377.167,726.181 376.5,728.5C 369.468,728.83 362.468,728.497 355.5,727.5C 356,726.5 356.5,725.5 357,724.5C 357.667,716.167 357.667,707.833 357,699.5C 356.617,698.944 356.117,698.611 355.5,698.5 Z"/></g>
<g><path style="opacity:1" fill="#e18249" d="M 340.5,700.5 C 337.375,699.521 334.042,699.187 330.5,699.5C 330.185,703.371 330.518,707.038 331.5,710.5C 334.685,710.98 337.519,710.314 340,708.5C 340.667,710.833 340.667,713.167 340,715.5C 336.962,713.307 333.796,712.973 330.5,714.5C 330.5,718.5 330.5,722.5 330.5,726.5C 334.371,726.815 338.038,726.482 341.5,725.5C 346.608,719.888 347.608,720.554 344.5,727.5C 337.646,727.824 330.979,727.491 324.5,726.5C 325.831,717.196 325.831,707.863 324.5,698.5C 330.798,697.504 337.132,697.17 343.5,697.5C 345.589,703.464 344.589,704.464 340.5,700.5 Z"/></g>
<g><path style="opacity:1" fill="#dc7c49" d="M 716.5,697.5 C 721.511,697.334 726.511,697.501 731.5,698C 738.62,701.139 740.286,706.139 736.5,713C 732.116,715.208 727.449,716.041 722.5,715.5C 722.078,719.712 722.744,723.712 724.5,727.5C 721.5,728.833 718.5,728.833 715.5,727.5C 715.808,726.692 716.308,726.025 717,725.5C 717.78,716.119 717.613,706.786 716.5,697.5 Z"/></g>
<g><path style="opacity:1" fill="#0b1832" d="M 722.5,699.5 C 730.885,698.716 734.051,702.383 732,710.5C 729.454,713.186 726.287,714.186 722.5,713.5C 722.5,708.833 722.5,704.167 722.5,699.5 Z"/></g>
<g><path style="opacity:1" fill="#dc7d49" d="M 286.5,697.5 C 289.187,697.336 291.854,697.503 294.5,698C 293.874,698.75 293.374,699.584 293,700.5C 292.333,707.5 292.333,714.5 293,721.5C 294.529,724.516 297.029,725.849 300.5,725.5C 304.177,725.664 306.677,723.997 308,720.5C 308.667,714.167 308.667,707.833 308,701.5C 307.535,700.069 306.701,698.903 305.5,698C 307.833,697.333 310.167,697.333 312.5,698C 311.874,698.75 311.374,699.584 311,700.5C 310.667,707.833 310.333,715.167 310,722.5C 306.629,727.85 301.796,729.683 295.5,728C 291.667,726.833 289.167,724.333 288,720.5C 287.768,712.786 287.268,705.119 286.5,697.5 Z"/></g>
<g><path style="opacity:1" fill="#d47848" d="M 386.5,698.5 C 388.628,697.371 390.961,697.204 393.5,698C 398.667,704.5 403.833,711 409,717.5C 409.667,712.5 409.667,707.5 409,702.5C 405.631,697.492 407.131,696.159 413.5,698.5C 413,708.613 412.167,718.613 411,728.5C 404.667,720.833 398.333,713.167 392,705.5C 391.333,711.5 391.333,717.5 392,723.5C 392.635,724.966 393.469,726.3 394.5,727.5C 392.167,728.833 389.833,728.833 387.5,727.5C 389.042,722.651 389.708,717.651 389.5,712.5C 389.333,708.833 389.167,705.167 389,701.5C 388.623,700.058 387.79,699.058 386.5,698.5 Z"/></g>
<g><path style="opacity:1" fill="#d07749" d="M 656.5,698.5 C 658.56,697.189 660.726,697.189 663,698.5C 666.228,708.783 670.395,718.616 675.5,728C 671.833,728.667 668.167,728.667 664.5,728C 667.059,725.075 667.059,722.075 664.5,719C 660.848,718.501 657.182,718.335 653.5,718.5C 652.423,721.526 652.423,724.526 653.5,727.5C 650.833,728.833 648.167,728.833 645.5,727.5C 650.748,718.94 654.748,709.773 657.5,700C 657.43,699.235 657.097,698.735 656.5,698.5 Z"/></g>
<g><path style="opacity:1" fill="#0d1432" d="M 658.5,705.5 C 659.497,705.47 660.164,705.97 660.5,707C 661.206,709.62 662.206,712.12 663.5,714.5C 660.833,715.833 658.167,715.833 655.5,714.5C 656.705,711.55 657.705,708.55 658.5,705.5 Z"/></g>
<g><path style="opacity:1" fill="#d27648" d="M 701.5,725.5 C 696.695,726.487 691.695,726.821 686.5,726.5C 687.608,717.881 687.775,709.215 687,700.5C 686.626,699.584 686.126,698.75 685.5,698C 688.227,697.182 690.894,697.348 693.5,698.5C 692.528,707.446 692.194,716.446 692.5,725.5C 695.5,725.5 698.5,725.5 701.5,725.5 Z"/></g>
<g><path style="opacity:1" fill="#dc7d49" d="M 753.5,697.5 C 758.167,697.5 762.833,697.5 767.5,697.5C 768.263,700.141 768.43,702.808 768,705.5C 764.96,699.632 760.46,698.132 754.5,701C 753.167,703 753.167,705 754.5,707C 760.228,708.945 765.395,711.778 770,715.5C 772.04,722.449 769.54,726.616 762.5,728C 757.826,728.333 753.16,728.167 748.5,727.5C 748.258,724.319 748.258,721.319 748.5,718.5C 751.957,725.398 757.29,727.564 764.5,725C 767.374,721.949 767.041,719.282 763.5,717C 758.603,715.593 754.103,713.427 750,710.5C 747.348,705.039 748.514,700.706 753.5,697.5 Z"/></g>
<g><path style="opacity:1" fill="#d67948" d="M 450.5,697.5 C 465.804,697.304 471.638,704.637 468,719.5C 463.078,728.762 455.911,730.929 446.5,726C 440.36,719.946 438.86,712.78 442,704.5C 444.441,701.546 447.275,699.213 450.5,697.5 Z"/></g>
<g><path style="opacity:1" fill="#0d1832" d="M 451.5,700.5 C 457.059,699.231 460.892,701.231 463,706.5C 464.091,712.097 463.424,717.43 461,722.5C 455.559,726.926 450.892,726.259 447,720.5C 443.948,712.595 445.448,705.928 451.5,700.5 Z"/></g>
<g><path style="opacity:1" fill="#664740" d="M 330.5,714.5 C 331.482,717.962 331.815,721.629 331.5,725.5C 334.833,725.5 338.167,725.5 341.5,725.5C 338.038,726.482 334.371,726.815 330.5,726.5C 330.5,722.5 330.5,718.5 330.5,714.5 Z"/></g>
<g><path style="opacity:1" fill="#d58349" d="M 686.5,726.5 C 691.695,726.821 696.695,726.487 701.5,725.5C 703.752,725.084 705.252,723.751 706,721.5C 706.018,723.797 705.851,726.131 705.5,728.5C 698.8,728.83 692.134,728.497 685.5,727.5C 685.624,726.893 685.957,726.56 686.5,726.5 Z"/></g>
<g><path style="opacity:1" fill="#85583e" d="M 324.5,726.5 C 330.979,727.491 337.646,727.824 344.5,727.5C 337.656,728.819 330.656,728.819 323.5,727.5C 323.624,726.893 323.957,726.56 324.5,726.5 Z"/></g>
<g><path style="opacity:1" fill="#7e543e" d="M 480.5,726.5 C 482.948,727.473 485.615,727.806 488.5,727.5C 485.645,728.803 482.645,728.803 479.5,727.5C 479.624,726.893 479.957,726.56 480.5,726.5 Z"/></g>
<g><path style="opacity:1" fill="#84563d" d="M 532.5,726.5 C 534.948,727.473 537.615,727.806 540.5,727.5C 537.645,728.803 534.645,728.803 531.5,727.5C 531.624,726.893 531.957,726.56 532.5,726.5 Z"/></g>
<g><path style="opacity:1" fill="#905d40" d="M 579.5,726.5 C 581.948,727.473 584.615,727.806 587.5,727.5C 584.645,728.803 581.645,728.803 578.5,727.5C 578.624,726.893 578.957,726.56 579.5,726.5 Z"/></g>
<g><path style="opacity:1" fill="#9a6241" d="M 598.5,727.5 C 604.509,727.666 610.509,727.499 616.5,727C 612.644,726.823 608.977,726.323 605.5,725.5C 609.514,725.666 613.514,725.499 617.5,725C 618.211,723.745 619.044,722.579 620,721.5C 620.758,723.769 620.591,725.936 619.5,728C 612.321,728.821 605.321,728.655 598.5,727.5 Z"/></g>
</svg>
